<svg xmlns="http://www.w3.org/2000/svg" width="18" height="18" viewBox="0 0 18 18" fill="none">
  <rect width="18" height="18" rx="4" fill="white"/>
  <path fill-rule="evenodd" clip-rule="evenodd" d="M16 9C16 12.866 12.866 16 9 16C5.13401 16 2 12.866 2 9C2 5.13401 5.13401 2 9 2C12.866 2 16 5.13401 16 9ZM9.25328 7.16709C8.57242 7.45028 7.21168 8.03641 5.17104 8.92549C4.83967 9.05726 4.66608 9.18617 4.65028 9.31223C4.62357 9.52526 4.89035 9.60914 5.25362 9.72337C5.30304 9.73891 5.35424 9.75501 5.40673 9.77207C5.76414 9.88825 6.24491 10.0242 6.49485 10.0296C6.72156 10.0345 6.97461 9.941 7.25397 9.74917C9.16061 8.46213 10.1448 7.8116 10.2066 7.79758C10.2502 7.78769 10.3106 7.77525 10.3515 7.81162C10.3925 7.848 10.3884 7.9169 10.3841 7.93538C10.3577 8.04805 9.3105 9.02161 8.76858 9.52542C8.59964 9.68249 8.47981 9.79389 8.45531 9.81934C8.40043 9.87634 8.3445 9.93025 8.29075 9.98207C7.95871 10.3022 7.70971 10.5422 8.30454 10.9342C8.59039 11.1225 8.81912 11.2783 9.04732 11.4337C9.29653 11.6034 9.5451 11.7727 9.8667 11.9835C9.94864 12.0372 10.0269 12.093 10.1031 12.1474C10.3931 12.3541 10.6537 12.5399 10.9756 12.5103C11.1627 12.493 11.3559 12.3172 11.454 11.7926C11.6859 10.5529 12.1417 7.86681 12.2471 6.75995C12.2563 6.66297 12.2447 6.53886 12.2354 6.48438C12.226 6.4299 12.2065 6.35228 12.1357 6.29481C12.0519 6.22676 11.9224 6.21241 11.8645 6.21343C11.6012 6.21807 11.1973 6.35852 9.25328 7.16709Z" fill="url(#paint0_linear_11590_551)"/>
  <defs>
    <linearGradient id="paint0_linear_11590_551" x1="702" y1="2" x2="702" y2="1391.62" gradientUnits="userSpaceOnUse">
      <stop stop-color="#2AABEE"/>
      <stop offset="1" stop-color="#229ED9"/>
    </linearGradient>
  </defs>
</svg>