<svg width="25" height="17" viewBox="0 0 25 17" fill="none" xmlns="http://www.w3.org/2000/svg">
<path d="M18.6078 1.08685H1.51807H18.6078Z" fill="#9AF9FE"/>
<path d="M18.6078 1.08685H1.51807" stroke="#9AF9FE" stroke-width="2" stroke-miterlimit="3.62796" stroke-linecap="round"/>
<path d="M8.53695 13.1502H1.5H8.53695Z" fill="#9AF9FE"/>
<path d="M8.53695 13.1502H1.5" stroke="#9AF9FE" stroke-width="2" stroke-miterlimit="3.62796" stroke-linecap="round"/>
<path d="M7.53167 7.11841H1.5H7.53167Z" fill="#9AF9FE"/>
<path d="M7.53167 7.11841H1.5" stroke="#9AF9FE" stroke-width="2" stroke-miterlimit="3.62796" stroke-linecap="round"/>
<mask id="path-7-inside-1_91_1590" fill="white">
<path d="M17.5636 6.77337L16.8556 7.48712C17.042 7.68314 17.2971 7.79359 17.5636 7.79359C17.8301 7.79359 18.0852 7.68314 18.2717 7.48712L17.5636 6.77337ZM16.8171 14.3887C15.9668 13.7435 14.8782 12.8275 14.0119 11.8089C13.1148 10.754 12.609 9.76629 12.609 8.96154H10.6272C10.6272 10.5408 11.5506 12.0121 12.5208 13.153C13.5219 14.3301 14.7387 15.3463 15.6414 16.0313L16.8171 14.3887ZM12.609 8.96154C12.609 7.45461 13.2624 6.66115 13.9346 6.4024C14.618 6.13934 15.7074 6.27974 16.8556 7.48712L18.2717 6.05956C16.7445 4.45368 14.8612 3.8673 13.2406 4.4912C11.6089 5.11937 10.6272 6.82656 10.6272 8.96154H12.609ZM19.4859 16.0313C20.3885 15.3463 21.6054 14.3301 22.6065 13.153C23.5766 12.0121 24.5001 10.5408 24.5001 8.96154H22.5182C22.5182 9.76629 22.0124 10.7541 21.1153 11.8089C20.249 12.8275 19.1605 13.7435 18.3101 14.3887L19.4859 16.0313ZM24.5001 8.96154C24.5001 6.82656 23.5184 5.11935 21.8867 4.4912C20.2661 3.86731 18.3828 4.45368 16.8556 6.05956L18.2717 7.48712C19.4198 6.27974 20.5093 6.13934 21.1926 6.4024C21.8649 6.66115 22.5182 7.45461 22.5182 8.96154H24.5001ZM15.6414 16.0313C16.1589 16.424 16.7381 16.9131 17.5636 16.9131V14.8727C17.5441 14.8727 17.5216 14.8758 17.4302 14.8249C17.3004 14.7526 17.1382 14.6323 16.8171 14.3887L15.6414 16.0313ZM18.3101 14.3887C17.9891 14.6323 17.8268 14.7526 17.6971 14.8249C17.6056 14.8758 17.5832 14.8727 17.5636 14.8727V16.9131C18.3891 16.9131 18.9684 16.424 19.4859 16.0313L18.3101 14.3887Z"/>
</mask>
<path d="M17.5636 6.77337L16.8556 7.48712C17.042 7.68314 17.2971 7.79359 17.5636 7.79359C17.8301 7.79359 18.0852 7.68314 18.2717 7.48712L17.5636 6.77337ZM16.8171 14.3887C15.9668 13.7435 14.8782 12.8275 14.0119 11.8089C13.1148 10.754 12.609 9.76629 12.609 8.96154H10.6272C10.6272 10.5408 11.5506 12.0121 12.5208 13.153C13.5219 14.3301 14.7387 15.3463 15.6414 16.0313L16.8171 14.3887ZM12.609 8.96154C12.609 7.45461 13.2624 6.66115 13.9346 6.4024C14.618 6.13934 15.7074 6.27974 16.8556 7.48712L18.2717 6.05956C16.7445 4.45368 14.8612 3.8673 13.2406 4.4912C11.6089 5.11937 10.6272 6.82656 10.6272 8.96154H12.609ZM19.4859 16.0313C20.3885 15.3463 21.6054 14.3301 22.6065 13.153C23.5766 12.0121 24.5001 10.5408 24.5001 8.96154H22.5182C22.5182 9.76629 22.0124 10.7541 21.1153 11.8089C20.249 12.8275 19.1605 13.7435 18.3101 14.3887L19.4859 16.0313ZM24.5001 8.96154C24.5001 6.82656 23.5184 5.11935 21.8867 4.4912C20.2661 3.86731 18.3828 4.45368 16.8556 6.05956L18.2717 7.48712C19.4198 6.27974 20.5093 6.13934 21.1926 6.4024C21.8649 6.66115 22.5182 7.45461 22.5182 8.96154H24.5001ZM15.6414 16.0313C16.1589 16.424 16.7381 16.9131 17.5636 16.9131V14.8727C17.5441 14.8727 17.5216 14.8758 17.4302 14.8249C17.3004 14.7526 17.1382 14.6323 16.8171 14.3887L15.6414 16.0313ZM18.3101 14.3887C17.9891 14.6323 17.8268 14.7526 17.6971 14.8249C17.6056 14.8758 17.5832 14.8727 17.5636 14.8727V16.9131C18.3891 16.9131 18.9684 16.424 19.4859 16.0313L18.3101 14.3887Z" fill="#9AF9FE"/>
<path d="M16.8171 14.3887L17.6303 14.9707L16.004 13.8066L16.8171 14.3887ZM19.4859 16.0313L18.6728 16.6134L20.299 15.4492L19.4859 16.0313ZM17.0425 15.792L17.6303 14.9707L16.004 13.8067L15.4162 14.6279L17.0425 15.792ZM18.0848 15.7922L18.6728 16.6134L20.299 15.4491L19.711 14.6279L18.0848 15.7922ZM18.5636 15.8929V14.8727H16.5636V15.8929H18.5636ZM12.609 7.96154H10.6272V9.96154H12.609V7.96154ZM16.4545 16.6133L17.6303 14.9708L16.004 13.8066L14.8282 15.4492L16.4545 16.6133ZM24.5001 7.96154H22.5182V9.96154H24.5001V7.96154ZM17.497 14.9708L18.6727 16.6133L20.299 15.4492L19.1233 13.8066L17.497 14.9708ZM18.5636 16.9131V14.8727H16.5636V16.9131H18.5636ZM16.8171 14.3887L18.0261 12.7955L18.026 12.7954L16.8171 14.3887ZM17.5636 6.77337L18.9835 5.36484L17.5636 3.93354L16.1438 5.36484L17.5636 6.77337ZM16.8556 7.48712L15.4063 8.86533L15.4063 8.86543L16.8556 7.48712ZM18.2717 7.48712L19.7209 8.86543L19.721 8.86533L18.2717 7.48712ZM19.4859 16.0313L18.277 14.438L18.2769 14.438L19.4859 16.0313ZM14.0119 11.8089L12.4883 13.1046L12.4884 13.1047L14.0119 11.8089ZM12.5208 13.153L10.9972 14.4486L10.9973 14.4487L12.5208 13.153ZM15.6414 16.0313L16.8504 14.438L16.8503 14.438L15.6414 16.0313ZM13.9346 6.4024L14.6531 8.2689L14.6531 8.26887L13.9346 6.4024ZM18.2717 6.05956L19.6916 7.46806L21.0596 6.08894L19.7209 4.6813L18.2717 6.05956ZM13.2406 4.4912L13.9591 6.35766L13.9591 6.35766L13.2406 4.4912ZM22.6065 13.153L24.13 14.4487L24.1301 14.4486L22.6065 13.153ZM21.1153 11.8089L19.5919 10.5131L19.5918 10.5131L21.1153 11.8089ZM18.3101 14.3887L17.1012 12.7954L17.1011 12.7955L18.3101 14.3887ZM21.8867 4.4912L21.1681 6.35767L21.1681 6.35767L21.8867 4.4912ZM16.8556 6.05956L15.4063 4.6813L14.0676 6.08894L15.4357 7.46806L16.8556 6.05956ZM21.1926 6.4024L20.4741 8.26887L20.4742 8.2689L21.1926 6.4024ZM17.4302 14.8249L16.4559 16.5716L16.4577 16.5726L17.4302 14.8249ZM17.6971 14.8249L18.6695 16.5726L18.6713 16.5716L17.6971 14.8249ZM16.1438 5.36484L15.4357 6.07859L18.2755 8.89565L18.9835 8.18191L16.1438 5.36484ZM15.4063 8.86543C15.9637 9.45149 16.7398 9.79359 17.5636 9.79359V5.79359C17.8544 5.79359 18.1203 5.91478 18.3048 6.10882L15.4063 8.86543ZM17.5636 9.79359C18.3874 9.79359 19.1635 9.45149 19.7209 8.86543L16.8224 6.10882C17.007 5.91478 17.2728 5.79359 17.5636 5.79359V9.79359ZM19.6915 6.07859L18.9835 5.36484L16.1438 8.18191L16.8518 8.89565L19.6915 6.07859ZM18.026 12.7954C17.229 12.1907 16.2682 11.3748 15.5354 10.5131L12.4884 13.1047C13.4882 14.2802 14.7046 15.2964 15.6082 15.982L18.026 12.7954ZM15.5355 10.5132C15.1602 10.0719 14.9119 9.6963 14.7646 9.40031C14.6125 9.09483 14.609 8.95722 14.609 8.96154H10.609C10.609 10.5051 11.5146 11.9596 12.4883 13.1046L15.5355 10.5132ZM8.6272 8.96154C8.6272 11.2793 9.95001 13.2172 10.9972 14.4486L14.0444 11.8574C13.1512 10.807 12.6272 9.80238 12.6272 8.96154H8.6272ZM10.9973 14.4487C12.1318 15.7827 13.4764 16.8991 14.4325 17.6245L16.8503 14.438C16.001 13.7936 14.9119 12.8774 14.0443 11.8573L10.9973 14.4487ZM14.609 8.96154C14.609 8.49543 14.7092 8.28632 14.7421 8.23054C14.7733 8.17756 14.7613 8.22722 14.6531 8.2689L13.2162 4.53589C11.5756 5.16736 10.609 6.85953 10.609 8.96154H14.609ZM14.6531 8.26887C14.5455 8.31031 14.528 8.27295 14.6365 8.30609C14.7471 8.33988 15.0213 8.46056 15.4063 8.86533L18.3049 6.10891C16.7741 4.49915 14.8658 3.90085 13.2161 4.53592L14.6531 8.26887ZM18.2755 8.89562L19.6916 7.46806L16.8518 4.65106L15.4357 6.07862L18.2755 8.89562ZM19.7209 4.6813C17.825 2.68766 15.1239 1.62308 12.522 2.62473L13.9591 6.35766C14.5985 6.11152 15.664 6.2197 16.8224 7.43783L19.7209 4.6813ZM12.522 2.62473C9.90546 3.63205 8.6272 6.25347 8.6272 8.96154H12.6272C12.6272 7.39966 13.3123 6.60669 13.9591 6.35766L12.522 2.62473ZM20.6948 17.6245C21.6508 16.8991 22.9954 15.7827 24.13 14.4487L21.083 11.8573C20.2153 12.8774 19.1262 13.7936 18.277 14.438L20.6948 17.6245ZM24.1301 14.4486C25.1772 13.2172 26.5001 11.2793 26.5001 8.96154H22.5001C22.5001 9.80238 21.9761 10.807 21.0829 11.8574L24.1301 14.4486ZM20.5182 8.96154C20.5182 8.95724 20.5147 9.0949 20.3627 9.40039C20.2154 9.69637 19.9671 10.0719 19.5919 10.5131L22.6388 13.1047C23.6127 11.9596 24.5182 10.5051 24.5182 8.96154H20.5182ZM19.5918 10.5131C18.859 11.3748 17.8983 12.1907 17.1012 12.7954L19.519 15.982C20.4226 15.2964 21.639 14.2802 22.6388 13.1047L19.5918 10.5131ZM26.5001 8.96154C26.5001 6.25348 25.2218 3.63203 22.6052 2.62473L21.1681 6.35767C21.815 6.60668 22.5001 7.39965 22.5001 8.96154H26.5001ZM22.6052 2.62473C20.0034 1.6231 17.3023 2.68765 15.4063 4.6813L18.3048 7.43783C19.4633 6.21971 20.5287 6.11152 21.1681 6.35767L22.6052 2.62473ZM15.4357 7.46806L16.8518 8.89562L19.6916 6.07862L18.2755 4.65106L15.4357 7.46806ZM19.721 8.86533C20.1059 8.46056 20.3801 8.33988 20.4908 8.30609C20.5992 8.27295 20.5818 8.31031 20.4741 8.26887L21.9111 4.53592C20.2614 3.90085 18.3531 4.49915 16.8223 6.10891L19.721 8.86533ZM20.4742 8.2689C20.3659 8.22722 20.3539 8.17756 20.3852 8.23054C20.4181 8.28632 20.5182 8.49543 20.5182 8.96154H24.5182C24.5182 6.85953 23.5516 5.16736 21.9111 4.53589L20.4742 8.2689ZM14.4324 17.6245C14.7996 17.9031 15.937 18.9131 17.5636 18.9131V14.9131C17.5591 14.9131 17.5564 14.9131 17.5472 14.9104C17.535 14.9068 17.504 14.8962 17.4483 14.8656C17.3903 14.8338 17.3168 14.7869 17.2149 14.7133C17.1004 14.6306 17.0104 14.5595 16.8504 14.438L14.4324 17.6245ZM17.5636 12.8727C17.4793 12.8727 17.6078 12.8708 17.7066 12.8787C17.8383 12.8892 17.9617 12.9129 18.0742 12.9451C18.2671 13.0003 18.3916 13.0711 18.4027 13.0773L16.4577 16.5726C16.5602 16.6296 16.7416 16.7243 16.9735 16.7907C17.1055 16.8284 17.2439 16.8545 17.3882 16.866C17.4995 16.8749 17.6382 16.8727 17.5636 16.8727V12.8727ZM18.4044 13.0783C18.4366 13.0962 18.4344 13.0985 18.3616 13.0463C18.2896 12.9946 18.1893 12.9193 18.0261 12.7955L15.6081 15.9819C15.8821 16.1898 16.1743 16.4145 16.4559 16.5716L18.4044 13.0783ZM17.1011 12.7955C16.9379 12.9193 16.8376 12.9946 16.7656 13.0463C16.6928 13.0985 16.6906 13.0962 16.7228 13.0783L18.6713 16.5716C18.953 16.4145 19.2451 16.1898 19.5191 15.9819L17.1011 12.7955ZM16.7246 13.0773C16.7357 13.0711 16.8601 13.0003 17.0531 12.9451C17.1655 12.9129 17.2889 12.8892 17.4207 12.8787C17.5195 12.8708 17.648 12.8727 17.5636 12.8727V16.8727C17.4891 16.8727 17.6277 16.8749 17.739 16.866C17.8834 16.8545 18.0218 16.8284 18.1537 16.7907C18.3857 16.7243 18.567 16.6296 18.6695 16.5726L16.7246 13.0773ZM17.5636 18.9131C19.1902 18.9131 20.3276 17.9031 20.6949 17.6245L18.2769 14.438C18.1168 14.5595 18.0269 14.6306 17.9124 14.7133C17.8104 14.7869 17.737 14.8338 17.679 14.8656C17.6232 14.8962 17.5922 14.9068 17.5801 14.9104C17.5708 14.9131 17.5681 14.9131 17.5636 14.9131V18.9131Z" fill="#9AF9FE" mask="url(#path-7-inside-1_91_1590)"/>
</svg>
