<svg width="12" height="16" viewBox="0 0 12 16" fill="none" xmlns="http://www.w3.org/2000/svg">
<path d="M9 0.5H3C2.40326 0.5 1.83097 0.737053 1.40901 1.15901C0.987053 1.58097 0.75 2.15326 0.75 2.75V13.25C0.75 13.8467 0.987053 14.419 1.40901 14.841C1.83097 15.2629 2.40326 15.5 3 15.5H9C9.59674 15.5 10.169 15.2629 10.591 14.841C11.0129 14.419 11.25 13.8467 11.25 13.25V2.75C11.25 2.15326 11.0129 1.58097 10.591 1.15901C10.169 0.737053 9.59674 0.5 9 0.5ZM9.75 13.25C9.75 13.4489 9.67098 13.6397 9.53033 13.7803C9.38968 13.921 9.19891 14 9 14H3C2.80109 14 2.61032 13.921 2.46967 13.7803C2.32902 13.6397 2.25 13.4489 2.25 13.25V12.5H9.75V13.25ZM9.75 11H2.25V2.75C2.25 2.55109 2.32902 2.36032 2.46967 2.21967C2.61032 2.07902 2.80109 2 3 2H9C9.19891 2 9.38968 2.07902 9.53033 2.21967C9.67098 2.36032 9.75 2.55109 9.75 2.75V11Z" fill="#5284F7"/>
</svg>
