<svg width="30" height="30" viewBox="0 0 30 30" fill="none" xmlns="http://www.w3.org/2000/svg">
<path fill-rule="evenodd" clip-rule="evenodd" d="M12.4709 4.67785C13.2814 4.47993 14.1285 4.375 15 4.375C20.868 4.375 25.625 9.13197 25.625 15C25.625 15.8715 25.5201 16.7186 25.3221 17.5291C25.9086 18.4171 26.25 19.4812 26.25 20.625C26.25 23.7316 23.7316 26.25 20.625 26.25C19.4812 26.25 18.4171 25.9086 17.5291 25.3221C16.7186 25.5201 15.8715 25.625 15 25.625C9.13197 25.625 4.375 20.868 4.375 15C4.375 14.1285 4.47993 13.2814 4.67785 12.4709C4.0914 11.5829 3.75 10.5188 3.75 9.375C3.75 6.2684 6.2684 3.75 9.375 3.75C10.5188 3.75 11.5829 4.0914 12.4709 4.67785ZM16.8802 14.0906C17.347 14.2298 17.7919 14.434 18.2018 14.6972C18.6205 14.9724 18.9695 15.3422 19.2215 15.7753C19.4824 16.255 19.6146 16.7942 19.6051 17.3402C19.6271 18.0446 19.4172 18.7366 19.0078 19.3102C18.577 19.8989 17.9857 20.3509 17.3047 20.6123C16.5721 20.9047 15.7878 21.0456 14.9992 21.0265C14.0712 21.0526 13.1507 20.8537 12.3163 20.4466C11.768 20.1579 11.2971 19.7415 10.9437 19.2324C10.59 18.7431 10.3918 18.1586 10.375 17.555C10.375 17.2837 10.4827 17.0236 10.6746 16.8317C10.8664 16.6399 11.1266 16.5322 11.3978 16.5322C11.6691 16.5322 11.9293 16.6399 12.1211 16.8317C12.3129 17.0236 12.4207 17.2837 12.4207 17.555C12.4417 17.742 12.5131 17.9199 12.6273 18.0695C12.79 18.3033 13.0059 18.4951 13.2573 18.629C13.8017 18.8833 14.3989 19.0039 14.9992 18.9808C15.5184 18.9978 16.0356 18.9101 16.5202 18.7231C16.8453 18.6063 17.13 18.3986 17.3405 18.1247C17.4964 17.9072 17.5736 17.6432 17.5594 17.376C17.5702 17.1696 17.5286 16.9638 17.4387 16.7776C17.3458 16.6251 17.2187 16.4962 17.0674 16.4012C16.8249 16.2483 16.5622 16.1299 16.287 16.0494C16.063 15.9808 15.8185 15.9144 15.5649 15.8489L15.5465 15.8469C15.5351 15.8431 15.5193 15.8393 15.5052 15.8359C15.5002 15.8347 15.4955 15.8336 15.4912 15.8325C15.3255 15.7906 15.1598 15.7487 14.9829 15.7098C14.5308 15.6126 14.2178 15.5339 14.0214 15.4745C14.017 15.4734 14.0131 15.4708 14.0092 15.4682C14.006 15.4659 14.0026 15.4637 13.9989 15.4623C13.5447 15.3522 13.0982 15.2128 12.6621 15.0449C12.0849 14.8134 11.5779 14.4355 11.1912 13.9485C10.7906 13.4228 10.5814 12.7762 10.598 12.1155C10.5981 11.4519 10.815 10.8065 11.2158 10.2775C11.6341 9.74549 12.1928 9.34092 12.8288 9.10941C13.532 8.85668 14.2757 8.73533 15.0228 8.75141C15.6105 8.74491 16.1959 8.82628 16.7595 8.9928C17.2478 9.13519 17.7053 9.36723 18.1087 9.67708C18.4578 9.94202 18.7491 10.2755 18.9648 10.657C19.0295 10.7753 19.0702 10.9053 19.0845 11.0394C19.0988 11.1736 19.0864 11.3092 19.048 11.4385C19.0097 11.5678 18.9461 11.6883 18.861 11.793C18.776 11.8976 18.671 11.9844 18.5522 12.0484C18.4335 12.1123 18.3032 12.1521 18.169 12.1655C18.0348 12.1789 17.8992 12.1656 17.7701 12.1264C17.6411 12.0872 17.521 12.0229 17.4169 11.9371C17.3128 11.8513 17.2267 11.7458 17.1636 11.6266C17.0764 11.4894 16.9635 11.3702 16.8311 11.2758C16.6265 11.1266 16.3968 11.015 16.153 10.9464C15.7854 10.8411 15.4041 10.7907 15.0217 10.7971C14.5276 10.7825 14.0348 10.8574 13.5673 11.018C13.2893 11.1127 13.042 11.2805 12.8513 11.5039C12.7151 11.6782 12.6412 11.8932 12.6416 12.1145C12.6249 12.3209 12.683 12.5264 12.8053 12.6934C12.9723 12.8976 13.1894 13.0551 13.4353 13.1506C13.9125 13.3344 14.4037 13.4794 14.9041 13.5843C15.3235 13.6764 15.6631 13.7582 15.9495 13.838C16.2768 13.9188 16.5938 14.0037 16.8802 14.0906Z" fill="#323B48"/>
</svg>
