<svg width="32" height="43" viewBox="0 0 32 43" fill="none" xmlns="http://www.w3.org/2000/svg">
<path fill-rule="evenodd" clip-rule="evenodd" d="M6.12781 0.809723C5.32382 1.31239 5.11998 1.89317 5.11998 3.67999V5.24723L3.31999 5.24789C0.412798 5.24887 0 5.70657 0 8.92869C0 10.7001 0.0212797 10.8271 0.349278 11.0071C0.646717 11.1704 0.741756 11.1442 0.989275 10.8306C1.23039 10.5251 1.27999 10.158 1.27999 8.67908C1.27999 6.41438 1.33391 6.36071 3.54142 6.43062L5.03998 6.47805L5.11998 7.38804C5.21582 8.47788 5.54397 9.04324 6.29213 9.40756C6.99309 9.74874 7.40685 9.74874 8.1078 9.40756C8.85596 9.04324 9.18412 8.47788 9.27996 7.38804L9.35996 6.47805H11.5999H13.8399L13.9199 7.38804C14.0158 8.47788 14.3439 9.04324 15.0921 9.40756C15.7931 9.74874 16.2068 9.74874 16.9078 9.40756C17.6559 9.04324 17.9841 8.47788 18.0799 7.38804L18.1599 6.47805H20.3999H22.6399L22.7199 7.38804C22.8157 8.47788 23.1439 9.04324 23.8921 9.40756C24.593 9.74874 25.0068 9.74874 25.7077 9.40756C26.4559 9.04324 26.784 8.47788 26.8799 7.38804L26.9599 6.47805L28.4584 6.43062C29.6072 6.39419 30.0459 6.44293 30.3384 6.63953L30.7199 6.89587V19.9206C30.7199 32.2635 30.7351 32.9646 31.0106 33.3135C31.2581 33.6271 31.3531 33.6534 31.6506 33.4901L31.9999 33.2984V20.1702C31.9999 5.70657 32.0347 6.22073 31.0095 5.57972C30.5613 5.29942 30.2029 5.24838 28.6799 5.24789L26.8799 5.24723V3.67999C26.8799 1.89317 26.676 1.31239 25.872 0.809723C24.8756 0.186436 23.4969 0.571764 22.9677 1.62141C22.7948 1.96439 22.7199 2.5862 22.7199 3.67999V5.24723H20.3999H18.0799V3.67999C18.0799 1.89317 17.8761 1.31239 17.0721 0.809723C16.0974 0.200057 14.8302 0.517937 14.2335 1.52179C13.9803 1.94766 13.9211 2.34972 13.9206 3.64717L13.9199 5.24723H11.5999H9.27996L9.27932 3.64717C9.27884 2.34972 9.21964 1.94766 8.96636 1.52179C8.36972 0.517937 7.10253 0.200057 6.12781 0.809723ZM7.86733 2.07254C8.1278 2.31427 8.15996 2.63511 8.15996 4.98991C8.15996 7.95651 8.04364 8.36531 7.19997 8.36531C6.35789 8.36531 6.23997 7.95421 6.23997 5.01847C6.23997 2.81333 6.28173 2.35382 6.50477 2.1011C6.83453 1.72742 7.48093 1.7138 7.86733 2.07254ZM16.6673 2.07254C16.9278 2.31427 16.9599 2.63511 16.9599 4.98991C16.9599 7.95651 16.8436 8.36531 15.9999 8.36531C15.1579 8.36531 15.0399 7.95421 15.0399 5.01847C15.0399 2.81333 15.0817 2.35382 15.3047 2.1011C15.6345 1.72742 16.2809 1.7138 16.6673 2.07254ZM25.4672 2.07254C25.7277 2.31427 25.7599 2.63511 25.7599 4.98991C25.7599 7.95651 25.6436 8.36531 24.7999 8.36531C23.9578 8.36531 23.8399 7.95421 23.8399 5.01847C23.8399 2.81333 23.8817 2.35382 24.1047 2.1011C24.4345 1.72742 25.0809 1.7138 25.4672 2.07254ZM0.0971199 13.0559C0.0436802 13.1986 0 19.4953 0 27.0486C0 40.0359 0.0158405 40.8123 0.292319 41.3411C0.453119 41.6486 0.830076 42.0352 1.12991 42.2002C1.64623 42.4841 2.43199 42.5 15.9999 42.5C29.5679 42.5 30.3536 42.4841 30.8699 42.2002C31.8413 41.6658 31.9999 41.1171 31.9999 38.2901C31.9999 36.9196 31.9562 35.6816 31.9027 35.5388C31.7667 35.1752 31.0851 35.2139 30.8855 35.5966C30.7927 35.7746 30.7199 36.9858 30.7199 38.3536C30.7199 40.0323 30.66 40.8546 30.5279 40.9902C30.2496 41.2756 1.75023 41.2756 1.47199 40.9902C1.32575 40.8402 1.27999 37.5342 1.27999 27.1121C1.27999 17.9952 1.22479 13.3252 1.11439 13.1136C0.914715 12.7309 0.233119 12.6922 0.0971199 13.0559ZM9.79996 13.0861C9.64588 13.2454 8.87964 14.1685 8.09724 15.1374C7.31469 16.1063 6.63069 16.8985 6.57725 16.8977C6.52365 16.897 6.31325 16.5972 6.10957 16.2314C5.80189 15.6788 5.66669 15.5749 5.30958 15.6173C4.62622 15.6982 4.68158 16.2435 5.50622 17.551C5.90621 18.1853 6.34125 18.7042 6.47293 18.7042C6.74413 18.7042 7.05421 18.3678 9.11932 15.8323C10.8995 13.6467 11.0652 13.3411 10.643 13.0244C10.2484 12.7285 10.1377 12.7365 9.79996 13.0861ZM12.5599 15.2503C11.5371 15.6842 11.0948 17.067 11.675 18.0166C12.2991 19.038 12.4084 19.0511 19.839 18.9981C26.3437 18.9517 26.55 18.9405 26.9884 18.6075C27.2367 18.419 27.5341 17.9657 27.6495 17.6001C27.9205 16.7409 27.612 15.9032 26.8495 15.4263C26.3397 15.1074 26.0674 15.0954 19.5999 15.1048C15.9039 15.1102 12.7359 15.1757 12.5599 15.2503ZM26.4616 16.7759C26.5904 16.9853 26.5904 17.1409 26.4616 17.3503C26.2989 17.615 25.77 17.6408 19.681 17.6803C14.939 17.7112 13.0155 17.6708 12.8585 17.5372C12.6302 17.3427 12.5615 16.706 12.7483 16.5143C12.8079 16.4531 15.8782 16.4224 19.571 16.4459C25.7647 16.4854 26.2988 16.511 26.4616 16.7759ZM8.29132 23.0509C6.67613 25.0554 6.63469 25.0923 6.39997 24.7385C5.76813 23.786 5.46846 23.5397 5.16974 23.7271C4.69278 24.0262 4.74526 24.3781 5.44766 25.5909C6.40973 27.2518 6.46045 27.2342 8.69772 24.4616C10.9828 21.6296 11.0032 21.5978 10.7307 21.2612C10.3043 20.734 9.94732 20.996 8.29132 23.0509ZM12.282 23.5561C11.8025 23.8229 11.36 24.5647 11.36 25.1015C11.36 25.7353 11.8102 26.5571 12.2995 26.8167C12.7172 27.0383 13.7305 27.0737 19.6503 27.0737C26.4517 27.0737 26.5208 27.0703 26.9576 26.718C27.7648 26.0668 28.0052 24.8391 27.4676 24.1122C26.8572 23.2871 26.9719 23.2987 19.6042 23.3058C13.8271 23.3114 12.6495 23.3516 12.282 23.5561ZM26.2504 24.6179C26.6532 24.8389 26.6532 25.5341 26.2504 25.7551C25.8269 25.9875 13.3729 25.9875 12.9494 25.7551C12.6035 25.5653 12.538 24.9464 12.8319 24.6449C13.0839 24.3865 25.7823 24.3609 26.2504 24.6179ZM8.26684 31.2447L6.60253 33.2823L6.09693 32.5465C5.5715 31.7819 5.2187 31.6796 4.8995 32.1997C4.76478 32.4189 4.79774 32.6242 5.04238 33.0918C5.6059 34.1693 6.23453 34.951 6.53741 34.951C6.72253 34.951 7.50989 34.108 8.64524 32.6945C9.64204 31.4535 10.5592 30.3141 10.6832 30.1626C11.0073 29.7668 10.7915 29.2072 10.3148 29.2072C10.02 29.2072 9.54604 29.6786 8.26684 31.2447ZM12.5231 31.584C11.3057 32.1267 11.0347 33.7083 11.991 34.6896L12.4859 35.1971L19.4121 35.2431L26.3383 35.289L26.889 34.9096C27.2378 34.6692 27.5228 34.2862 27.6658 33.8652C27.8709 33.2615 27.8636 33.1413 27.5858 32.5576C27.005 31.3375 27.0236 31.3403 19.5999 31.3473C14.3297 31.3522 12.9383 31.3987 12.5231 31.584ZM26.4616 33.0227C26.5904 33.2321 26.5904 33.3877 26.4616 33.5971C26.298 33.8633 25.788 33.8843 19.5025 33.8843H12.7199L12.6676 33.506C12.5476 32.637 12.4667 32.6464 19.6436 32.6927C25.7682 32.7322 26.2988 32.7578 26.4616 33.0227Z" fill="white"/>
</svg>
