<svg width="30" height="29" viewBox="0 0 30 29" fill="none" xmlns="http://www.w3.org/2000/svg">
<path fill-rule="evenodd" clip-rule="evenodd" d="M23.1039 23.9125L23.1048 23.9104L23.1265 23.8579L26.875 5.58901V5.52967C26.875 5.07449 26.701 4.67712 26.3224 4.43876C25.991 4.23013 25.6101 4.21527 25.3429 4.23487C25.0604 4.2556 24.794 4.32377 24.6096 4.38051C24.5147 4.4097 24.4353 4.43783 24.3785 4.45911C24.35 4.46978 24.3269 4.47884 24.3101 4.4856L24.2936 4.49231L3.39385 12.4177L3.3881 12.4197C3.37681 12.4237 3.36188 12.429 3.34385 12.4358C3.30791 12.4493 3.25898 12.4687 3.20151 12.4939C3.08866 12.5433 2.93274 12.6196 2.77461 12.7243C2.50604 12.9021 1.99465 13.323 2.081 13.9902C2.15253 14.5429 2.54666 14.894 2.81237 15.0757C2.95481 15.1731 3.09107 15.2434 3.19086 15.2893C3.24142 15.3126 3.28436 15.3304 3.31635 15.343C3.33238 15.3493 3.34579 15.3543 3.35617 15.3581L3.36945 15.3629L3.37794 15.366L7.03449 16.556C7.02215 16.7777 7.0449 17.0038 7.10574 17.2269L8.93735 23.9434C9.15452 24.7397 9.8998 25.2944 10.7518 25.2938C11.5154 25.2933 12.1927 24.8467 12.4804 24.1804L15.34 21.2247L20.2513 24.8645L20.3211 24.894C20.7673 25.0822 21.1842 25.1418 21.5653 25.0915C21.946 25.0412 22.2484 24.887 22.4756 24.7112C22.6992 24.5383 22.8524 24.3432 22.9488 24.1963C22.9977 24.1216 23.0342 24.056 23.0596 24.0066C23.0723 23.9818 23.0823 23.9608 23.0898 23.9445L23.0992 23.9235L23.1026 23.9157L23.1039 23.9125ZM8.91874 16.7649C8.87711 16.6123 8.94247 16.4511 9.08032 16.3665L21.4828 8.7529C21.4828 8.7529 22.2123 8.32479 22.1863 8.7529C22.1863 8.7529 22.3164 8.8285 21.9255 9.18101C21.5548 9.5158 13.0859 17.4196 12.229 18.2194C12.1796 18.2655 12.15 18.3185 12.1326 18.3828L10.7503 23.4813L8.91874 16.7649Z" fill="#323B48"/>
</svg>
