<svg width="30" height="30" viewBox="0 0 30 30" fill="none" xmlns="http://www.w3.org/2000/svg">
<path fill-rule="evenodd" clip-rule="evenodd" d="M20.8454 3.28431C16.9126 2.40523 12.8343 2.40523 8.90158 3.28431L8.4778 3.37904C6.22181 3.88332 4.44125 5.61365 3.87263 7.85429C2.87579 11.7824 2.87579 15.8973 3.87263 19.8254C4.41579 21.9657 6.06482 23.6404 8.17775 24.2256L8.75858 27.6953C8.79619 27.92 8.95308 28.1064 9.16803 28.1819C9.38299 28.2573 9.62197 28.2098 9.79175 28.0579L13.2051 25.0038C15.7607 25.1598 18.3327 24.957 20.8454 24.3954L21.2692 24.3006C23.5251 23.7964 25.3057 22.066 25.8743 19.8254C26.8712 15.8973 26.8712 11.7824 25.8743 7.85429C25.3057 5.61365 23.5252 3.88332 21.2692 3.37904L20.8454 3.28431ZM9.9559 7.75226C9.72371 7.71833 9.4869 7.76494 9.28489 7.88433H9.26766C8.79866 8.15924 8.37616 8.50671 8.01586 8.91382C7.71645 9.25999 7.55403 9.61026 7.51137 9.94741C7.48594 10.1484 7.50317 10.3494 7.56305 10.5413L7.58438 10.5544C7.92153 11.5454 8.36204 12.4986 8.90016 13.396C9.59334 14.6568 10.4464 15.8228 11.4382 16.8651L11.4677 16.9078L11.5145 16.9422L11.544 16.9767L11.5785 17.0062C12.6246 18.0009 13.7934 18.858 15.0566 19.5566C16.5004 20.3424 17.3764 20.714 17.9023 20.8682V20.8764C18.0565 20.9232 18.1968 20.9445 18.3379 20.9445C18.786 20.9117 19.2102 20.7298 19.5429 20.4277C19.9481 20.0673 20.2917 19.6431 20.5601 19.1718V19.1636C20.8119 18.6895 20.7266 18.2408 20.3632 17.9373C19.6354 17.3011 18.8484 16.7361 18.013 16.2499C17.4536 15.9464 16.8851 16.1301 16.6546 16.4377L16.1632 17.0571C15.9114 17.3647 15.4536 17.322 15.4536 17.322L15.4405 17.3302C12.0272 16.4582 11.1166 13.0023 11.1166 13.0023C11.1166 13.0023 11.074 12.5322 11.3898 12.2927L12.005 11.7972C12.2995 11.5577 12.5046 10.99 12.1888 10.4298C11.706 9.59316 11.1422 8.80599 10.5055 8.07956C10.3663 7.9083 10.1711 7.79179 9.95426 7.75062L9.9559 7.75226ZM15.7241 6.24999C15.3789 6.24999 15.0991 6.52981 15.0991 6.87499C15.0991 7.22017 15.3789 7.49999 15.7241 7.49999C17.3047 7.49999 18.6181 8.01664 19.6556 9.00593C20.1897 9.54767 20.6055 10.1889 20.8785 10.8907C21.1525 11.595 21.2771 12.3461 21.2451 13.0984C21.2304 13.4433 21.4981 13.7348 21.843 13.7494C22.1879 13.7641 22.4793 13.4964 22.494 13.1515C22.5333 12.226 22.3799 11.3026 22.0434 10.4375C21.7069 9.57247 21.1947 8.78421 20.5384 8.12059L20.5258 8.10857C19.2384 6.87729 17.6064 6.24999 15.7241 6.24999ZM15.6815 8.3054C15.3363 8.3054 15.0565 8.58522 15.0565 8.9304C15.0565 9.27558 15.3363 9.5554 15.6815 9.5554H15.7019C16.8425 9.63578 17.6724 10.016 18.2542 10.64C18.8498 11.2827 19.1584 12.081 19.1356 13.0687C19.1276 13.4138 19.4008 13.7 19.7459 13.708C20.091 13.716 20.3772 13.4427 20.3852 13.0976C20.4152 11.8008 19.9982 10.6825 19.1703 9.78956L19.1693 9.78838C18.3235 8.88077 17.1632 8.40064 15.7652 8.3068L15.7443 8.3054H15.6815ZM15.6579 10.3983C15.3132 10.3802 15.019 10.6449 15.0009 10.9896C14.9827 11.3343 15.2475 11.6285 15.5922 11.6466C16.1155 11.6742 16.4491 11.8311 16.6588 12.0429C16.8695 12.2556 17.0271 12.5962 17.0558 13.1303C17.0743 13.4749 17.3688 13.7393 17.7134 13.7208C18.0581 13.7023 18.3225 13.4078 18.304 13.0631C18.2636 12.3131 18.0289 11.65 17.547 11.1633C17.0641 10.6758 16.4048 10.4377 15.6579 10.3983Z" fill="#323B48"/>
</svg>
