<svg width="29" height="29" viewBox="0 0 29 29" fill="none" xmlns="http://www.w3.org/2000/svg">
<path d="M11.8924 8.99403L11.8927 8.99469C12.0506 9.34661 12.3129 9.98536 12.5229 10.4968L12.5264 10.5052C12.6091 10.7067 12.6839 10.8887 12.7422 11.0288C12.7714 11.0989 12.7959 11.1572 12.8149 11.2015C12.8244 11.2237 12.8321 11.2413 12.838 11.2545C12.842 11.2635 12.8443 11.2685 12.8454 11.2707C12.846 11.2721 12.8461 11.2723 12.8457 11.2716L12.3989 11.4959M11.8924 8.99403L12.8722 12.2564C13.0698 11.8515 12.9592 11.4975 12.8457 11.2714L12.3989 11.4959M11.8924 8.99403C11.7516 8.68134 11.5742 8.44698 11.3331 8.30718C11.1016 8.17298 10.8743 8.16722 10.7617 8.16436C10.7584 8.16428 10.7552 8.1642 10.7521 8.16411M11.8924 8.99403L10.7521 8.16411M12.3989 11.4959C12.4766 11.6505 12.5244 11.829 12.4228 12.0372L11.4366 9.1994C11.5912 9.54399 11.8517 10.1784 12.0639 10.6951L12.064 10.6954C12.2291 11.0974 12.3649 11.4282 12.3989 11.4959ZM15.9689 16.9679C15.906 16.9366 15.8264 16.9022 15.7496 16.8691L15.7399 16.8649L15.7387 16.8644C15.3179 16.6829 14.51 16.3343 13.5742 15.5012L13.5733 15.5004C12.7258 14.7494 12.1375 13.8121 11.9528 13.4968C11.9657 13.4834 11.98 13.469 11.9983 13.4508L11.9986 13.4505C12.1035 13.346 12.2185 13.207 12.3141 13.0914L12.3236 13.0799C12.383 13.0082 12.4376 12.9423 12.489 12.8833L12.4891 12.8832C12.6704 12.6749 12.7527 12.5041 12.835 12.3333L12.839 12.3249L12.839 12.3249L12.8721 12.2565L15.7462 17.4155M15.9689 16.9679L15.7462 17.4155M15.9689 16.9679C15.9689 16.9679 15.9689 16.9679 15.9689 16.9679L15.7462 17.4155M15.9689 16.9679C16.0033 16.985 16.03 16.9963 16.0499 17.0036M15.7462 17.4155C16.0571 17.5702 16.2423 17.5464 16.4216 17.3382C16.601 17.1299 17.1987 16.4338 17.408 16.1245M16.0499 17.0036C16.0475 17.0064 16.0451 17.0092 16.0428 17.0119L16.0428 17.0119C16.0274 17.0298 16.0195 17.0357 16.0196 17.0358C16.0196 17.0358 16.0206 17.035 16.0228 17.0336C16.0272 17.0309 16.0347 17.027 16.0448 17.0234C16.0476 17.0224 16.0503 17.0216 16.0531 17.0208C16.0531 17.0208 16.0531 17.0208 16.0531 17.0208C16.0606 17.0186 16.068 17.0172 16.0749 17.0164C16.0859 17.0151 16.0921 17.0158 16.0922 17.0158C16.0922 17.0158 16.0887 17.0154 16.081 17.0134C16.0733 17.0115 16.0631 17.0084 16.0499 17.0036ZM16.0499 17.0036C16.2461 16.7758 16.8044 16.1234 16.9923 15.8466M16.9923 15.8466C16.9915 15.8477 16.9908 15.8488 16.9901 15.85L17.408 16.1245M16.9923 15.8466C16.9928 15.8458 16.9933 15.8451 16.9938 15.8443L17.408 16.1245M16.9923 15.8466C17.1475 15.6118 17.3656 15.43 17.6677 15.3944C17.9168 15.3651 18.1484 15.4515 18.2812 15.501L18.2821 15.5014L18.2822 15.5014C18.453 15.5651 18.9346 15.7931 19.3792 16.0071C19.8381 16.2281 20.3003 16.4551 20.458 16.5335L20.458 16.5336C20.5157 16.5623 20.57 16.5883 20.6236 16.614L20.6369 16.6204C20.734 16.667 20.8449 16.7201 20.9385 16.7773C21.0359 16.8368 21.1701 16.9325 21.263 17.089L20.833 17.3441L18.1073 15.9698C17.8204 15.8628 17.6112 15.8152 17.408 16.1245M10.7521 8.16411C10.5649 8.15797 10.3496 8.15797 10.1448 8.15797H10.1394C9.81578 8.15797 9.33902 8.2765 8.94197 8.70464M10.7521 8.16411L9.14322 15.2118L9.1058 15.1567C9.09718 15.1441 9.09353 15.139 9.09297 15.1382L9.08672 15.1298L9.08668 15.1298L9.08663 15.1297C8.99216 15.0033 8.65509 14.5523 8.34107 13.9317C8.03042 13.3178 7.72063 12.4963 7.72063 11.6328C7.72063 9.99951 8.53908 9.13076 8.88889 8.76107L8.88889 8.76107C8.9098 8.73897 8.9269 8.72089 8.94197 8.70464M8.94197 8.70464L9.30858 9.04463L8.94197 8.70464ZM9.03266 24.478C8.92115 24.4176 8.79086 24.4019 8.66816 24.4339L3.12891 25.8807L4.60822 20.5111C4.64383 20.3818 4.62604 20.2437 4.55885 20.1277C3.5488 18.3837 3.01755 16.4061 3.01827 14.3934V14.3932C3.01827 8.06781 8.19567 2.91699 14.5507 2.91699C17.6404 2.91699 20.5322 4.11404 22.7098 6.28146C24.8869 8.44839 26.0833 11.3313 26.0833 14.3991C26.0833 20.7244 20.9059 25.8753 14.5508 25.8753H14.5448C12.6139 25.8753 10.7172 25.3905 9.03266 24.478ZM14.6307 19.9869L14.8137 19.5216L14.6306 19.9869C14.6306 19.9869 14.6307 19.9869 14.6307 19.9869ZM9.49384 14.8394L9.09307 15.1383L9.0933 15.1386L9.49384 14.8394Z" fill="#323B48" stroke="#323B48" stroke-linejoin="round"/>
</svg>
