<svg width="41" height="35" viewBox="0 0 41 35" fill="none" xmlns="http://www.w3.org/2000/svg">
<path fill-rule="evenodd" clip-rule="evenodd" d="M10.7868 10.5734L0 21.1468V27.879C0 32.899 0.0504229 34.6605 0.198387 34.8056C0.348169 34.9524 2.73163 35 9.91159 35H19.4264L30.2132 24.4266L41 13.8532V7.12104C41 2.10097 40.9496 0.339467 40.8016 0.194444C40.6669 0.0623838 39.8852 0 38.3643 0H36.1251L31.6267 4.40692C25.9955 9.92347 26.4516 9.93271 26.4516 4.30127C26.4516 1.47437 26.3966 0.33493 26.2532 0.194444C26.1185 0.0623838 25.3365 0 23.8142 0H21.5736L10.7868 10.5734ZM14.3004 11.0185L4.38204 20.7407H3.30744H2.23285L12.1512 11.0185L22.0696 1.2963H23.1442H24.2188L14.3004 11.0185ZM28.8488 11.0185L18.9304 20.7407H17.8558H16.7812L26.6996 11.0185L36.618 1.2963H37.6926H38.7672L28.8488 11.0185ZM25.665 9.1956L26.1937 9.73016L20.371 15.4389L14.5484 21.1475V25.0684C14.5484 27.6988 14.4852 29.1252 14.3564 29.4021L14.1647 29.8148H9.91936H5.67404L5.48226 29.4021C5.35463 29.1276 5.29032 27.7574 5.29032 25.3112V21.6329L15.1683 11.9501L25.0464 2.26706L25.0913 5.46389L25.1363 8.66088L25.665 9.1956ZM29.7602 23.0878L19.8387 32.8122V27.2225V21.6329L29.7167 11.9501L39.5948 2.26738L39.6382 7.81537L39.6819 13.3634L29.7602 23.0878ZM3.97154 25.7234L3.97551 29.4097L4.42684 30.2199L4.87834 31.0301H9.91936H14.9604L15.4119 30.2199L15.8632 29.4097L15.8672 25.7234L15.871 22.037H17.1935H18.5161V27.8704V33.7037H9.91936H1.32258V27.8704V22.037H2.64516H3.96774L3.97154 25.7234Z" fill="#606774"/>
</svg>
