<svg width="34" height="34" viewBox="0 0 34 34" fill="none" xmlns="http://www.w3.org/2000/svg">
<path fill-rule="evenodd" clip-rule="evenodd" d="M23.5865 0.141785C23.2769 0.243281 22.8114 0.451196 22.5522 0.603906C21.8393 1.02413 8.24643 12.2074 7.60835 12.8987C6.33713 14.2761 5.68759 16.6068 6.09127 18.3424L6.20607 18.8362L3.7149 21.2251C1.79813 23.0634 1.12689 23.7958 0.803395 24.4018C-0.583567 27.0011 -0.148993 30.0227 1.90801 32.0809C3.93438 34.1083 6.88317 34.5697 9.46438 33.2633C10.3334 32.8234 11.7008 31.5242 12.1146 30.745C12.2876 30.4195 12.459 30.1539 12.4957 30.1547C12.5325 30.1556 12.6825 30.4097 12.829 30.7194C12.9755 31.0292 13.4549 31.642 13.8944 32.0815C16.468 34.6546 20.5176 34.6373 23.0446 32.0424C23.6351 31.436 24.6188 29.8469 27.9505 24.117C32.2998 16.637 32.3556 16.5184 31.5274 16.5184C31.2493 16.5184 30.8271 17.1779 28.1458 21.8008C26.4606 24.7061 25.0451 27.0856 25.0004 27.0885C24.9556 27.0913 24.8824 26.7836 24.8374 26.4048C24.6192 24.5651 23.0869 22.5708 21.2061 21.6786C20.3222 21.2593 20.0036 21.1807 18.9279 21.1162L17.6773 21.0411L22.8741 14.8324C25.778 11.3631 28.2016 8.58235 28.3671 8.52994C28.9419 8.3477 30.0377 8.44667 30.7275 8.74305C31.5639 9.10234 32.6205 10.2088 32.8463 10.9617C33.0667 11.6966 33.0465 13.0382 32.8063 13.6124C32.5256 14.2836 32.5505 14.6869 32.8793 14.7911C33.5194 14.9941 34.0074 13.8635 33.9999 12.1951C33.9957 11.2403 33.9355 10.9343 33.613 10.2276C32.9306 8.73201 31.4693 7.69775 29.709 7.46456L29.0531 7.3777L29.3866 6.56054C29.6459 5.92496 29.719 5.51338 29.7158 4.70713C29.7121 3.78661 29.6571 3.56047 29.2243 2.68572C28.3904 1.00058 27.0383 0.107465 25.1743 0.0106243C24.5216 -0.0231635 23.945 0.0244587 23.5865 0.141785ZM26.5858 1.36493C28.4423 2.28904 29.2785 4.65366 28.3724 6.41821C28.1649 6.8222 19.6158 17.2453 18.9972 17.8486C18.9044 17.9391 18.8884 17.8501 18.9472 17.5704C19.2228 16.2612 18.3038 13.851 17.0525 12.6011C15.8005 11.3507 14.3487 10.7325 12.626 10.7164C12.1039 10.7115 11.6964 10.6901 11.7202 10.669C11.7441 10.6477 14.2207 8.61175 17.224 6.14471C20.2752 3.63843 22.9783 1.5191 23.3504 1.34152C24.3085 0.884452 25.6397 0.894029 26.5858 1.36493ZM13.6668 11.8012C14.9663 12.1005 16.408 13.1101 17.1 14.2051C18.661 16.6748 17.9554 20.0205 15.5328 21.6363C14.3723 22.4102 13.6298 22.6115 12.1691 22.5476C11.1129 22.5015 10.8126 22.4324 10.0624 22.0636C9.02328 21.5528 8.02868 20.5319 7.47797 19.4114C7.13489 18.7132 7.10212 18.5194 7.10212 17.1835C7.10212 15.8156 7.12969 15.6621 7.52485 14.8288C8.62147 12.5168 11.2179 11.237 13.6668 11.8012ZM11.031 12.5698C10.0491 12.8962 9.69918 13.1339 9.69918 13.4745C9.69918 14.0197 10.0011 14.0906 10.7806 13.7281C11.5841 13.3546 12.9085 13.273 13.7081 13.548C15.4411 14.1439 16.559 16.0234 16.2255 17.7804C15.5254 21.4671 10.6681 22.1033 9.00224 18.7266C8.70378 18.1217 8.66529 17.5371 8.8002 15.6537C8.8311 15.221 8.80619 15.1881 8.4474 15.1881C7.89216 15.1881 7.66562 15.8864 7.73154 17.3951C7.79414 18.8271 8.22832 19.7683 9.26141 20.7114C10.1729 21.5434 11.1614 21.9206 12.4308 21.9206C14.4519 21.9206 16.0712 20.8801 16.9211 19.0352C17.1633 18.5096 17.2228 18.1448 17.2233 17.1835C17.2239 16.1496 17.1727 15.8755 16.8479 15.1735C15.837 12.9889 13.252 11.8318 11.031 12.5698ZM6.94643 20.5323L7.29271 21.0878L6.31129 21.0929L5.32987 21.0981L5.9485 20.5142C6.28878 20.1931 6.57459 19.9409 6.58365 19.9537C6.5927 19.9665 6.75598 20.2269 6.94643 20.5323ZM7.67361 22.177C8.97307 22.4763 10.4148 23.4858 11.1068 24.5809C12.8672 27.3663 11.7905 31.0399 8.799 32.4554C7.95835 32.8532 7.80786 32.8802 6.43302 32.8802C5.04352 32.8802 4.91753 32.8569 4.07955 32.4447C3.02967 31.9283 2.03773 30.9124 1.48476 29.7871C1.14168 29.089 1.10892 28.8952 1.10892 27.5593C1.10892 26.1887 1.13595 26.039 1.5355 25.1967C2.61561 22.919 5.25622 21.6201 7.67361 22.177ZM20.6878 22.5519C24.9699 24.5534 25.0281 30.448 20.7854 32.4554C19.9448 32.8532 19.7943 32.8802 18.4194 32.8802C17.0299 32.8802 16.904 32.8569 16.066 32.4447C15.0161 31.9283 14.0241 30.9124 13.4712 29.7871C13.1281 29.089 13.0953 28.8952 13.0953 27.5593C13.0953 26.1914 13.1229 26.0379 13.5181 25.2046C14.8013 22.4993 18.0242 21.3069 20.6878 22.5519ZM5.35517 22.8223C4.00417 23.1699 2.7131 24.2297 2.13189 25.4682C1.81918 26.1345 1.77483 26.3943 1.77483 27.5593C1.77483 28.7695 1.81039 28.9596 2.16905 29.6665C3.00037 31.3053 4.60895 32.2963 6.43754 32.2963C8.45872 32.2963 10.078 31.2558 10.9279 29.411C11.17 28.8854 11.2296 28.5206 11.2301 27.5593C11.2306 26.5254 11.1795 26.2513 10.8547 25.5493C10.0963 23.9103 8.49202 22.8287 6.7099 22.7546C6.19315 22.7332 5.58345 22.7637 5.35517 22.8223ZM17.3416 22.8223C15.9906 23.1699 14.6995 24.2297 14.1183 25.4682C13.8056 26.1345 13.7612 26.3943 13.7612 27.5593C13.7612 28.7695 13.7968 28.9596 14.1555 29.6665C14.9868 31.3053 16.5954 32.2963 18.424 32.2963C20.4451 32.2963 22.0644 31.2558 22.9143 29.411C23.1565 28.8854 23.216 28.5206 23.2165 27.5593C23.2171 26.5254 23.1659 26.2513 22.8411 25.5493C22.0828 23.9103 20.4784 22.8287 18.6963 22.7546C18.1796 22.7332 17.5699 22.7637 17.3416 22.8223ZM12.9915 24.0842C12.8288 24.3312 12.6359 24.6318 12.5626 24.7524C12.4515 24.9351 12.3711 24.8608 12.0777 24.3033L11.7258 23.6351H12.5064H13.2871L12.9915 24.0842ZM7.7149 23.9238C9.44787 24.5197 10.5658 26.3992 10.2323 28.1561C9.53217 31.8429 4.67487 32.4791 3.00903 29.1023C2.5919 28.2568 2.59496 26.7405 3.01542 25.9335C3.75898 24.5064 4.90461 23.7681 6.37588 23.7681C6.86333 23.7681 7.46585 23.8382 7.7149 23.9238ZM19.7013 23.9238C21.4343 24.5197 22.5522 26.3992 22.2187 28.1561C21.5186 31.8429 16.6613 32.4791 14.9954 29.1023C14.5783 28.2568 14.5814 26.7405 15.0018 25.9335C15.7454 24.5064 16.891 23.7681 18.3623 23.7681C18.8497 23.7681 19.4523 23.8382 19.7013 23.9238Z" fill="#606774"/>
</svg>
