<svg width="48" height="34" viewBox="0 0 48 34" fill="none" xmlns="http://www.w3.org/2000/svg">
<path fill-rule="evenodd" clip-rule="evenodd" d="M11.0772 0.214704C10.7659 0.599124 0 23.7833 0 24.0691C0 24.5744 0.520645 24.7316 3.29032 25.0622C4.83387 25.2466 6.19529 25.4939 6.31568 25.612C6.43606 25.73 6.81658 26.6981 7.16129 27.7632C7.506 28.8284 7.88652 29.8025 8.0069 29.928C8.25581 30.1873 13.8312 31.0402 14.2432 30.882C14.3915 30.825 14.8372 30.122 15.234 29.3197C15.7442 28.2881 16.0423 27.8854 16.2519 27.9449C16.415 27.9912 17.5303 28.137 18.7303 28.2689C19.9303 28.401 20.9855 28.6026 21.0753 28.717C21.1651 28.8315 21.5218 29.7967 21.8683 30.8618C22.2145 31.927 22.5962 32.9011 22.7166 33.0266C22.9655 33.2859 28.5408 34.1388 28.9529 33.9806C29.1012 33.9236 29.5457 33.2232 29.9408 32.4241C30.5367 31.2193 30.727 30.9854 31.0554 31.0549C31.2734 31.1012 32.616 31.2809 34.0394 31.4544C36.2055 31.7186 36.6675 31.7275 36.8762 31.5096C37.1919 31.1798 48 7.98426 48 7.63683C48 7.49507 47.8883 7.28649 47.7517 7.17301C47.4408 6.91505 40.9175 6.09818 40.6227 6.28041C40.5039 6.35401 40.1208 7.04151 39.7717 7.80822L39.1366 9.2022L36.996 8.89641C35.8186 8.72812 34.7752 8.50347 34.6775 8.39695C34.5797 8.29044 34.2172 7.33181 33.8719 6.26666C33.5266 5.20152 33.1457 4.22565 33.0254 4.09822C32.7691 3.8269 26.232 2.98466 25.913 3.18181C25.7942 3.2554 25.4112 3.94291 25.062 4.70962L24.427 6.1036L22.2863 5.79781C21.109 5.62951 20.0655 5.40487 19.9678 5.29835C19.8701 5.19184 19.5075 4.23321 19.1623 3.16806C18.817 2.10292 18.4361 1.12589 18.3157 0.996714C18.1953 0.867735 16.6444 0.584406 14.8694 0.36731C11.0555 -0.0990295 11.3226 -0.0883785 11.0772 0.214704ZM16.3995 2.14881C16.6318 2.19839 7.10671 22.9552 6.5489 23.6148C6.31335 23.8935 6.09716 23.8935 4.11677 23.6148L1.94323 23.309L6.86439 12.7544C9.57097 6.94933 11.8692 2.06147 11.9714 1.8924C12.1382 1.61682 12.3631 1.61159 14.1594 1.84147C15.2603 1.98246 16.2685 2.12073 16.3995 2.14881ZM18.3906 6.3635C18.3145 6.52327 16.0872 11.3052 13.4408 16.99L8.62916 27.3259L8.21148 26.0921C7.98174 25.4135 7.85613 24.7276 7.932 24.5678C8.00806 24.408 10.2354 19.6261 12.8818 13.9413L17.6934 3.60535L18.1111 4.83918C18.3408 5.51777 18.4665 6.20372 18.3906 6.3635ZM31.1092 5.24742C31.3415 5.297 21.8164 26.0538 21.2586 26.7134C21.023 26.9921 20.8068 26.9921 18.8265 26.7134L16.6529 26.4076L21.5741 15.853C24.2806 10.0479 26.5788 5.16008 26.681 4.99101C26.8479 4.71543 27.0728 4.7102 28.8691 4.94008C29.97 5.08106 30.9782 5.21934 31.1092 5.24742ZM33.1003 9.4621C33.0242 9.62187 30.7968 14.4038 28.1505 20.0886L23.3388 30.4245L22.9212 29.1907C22.6914 28.5121 22.5658 27.8262 22.6417 27.6664C22.7177 27.5066 24.9451 22.7247 27.5915 17.0399L32.4031 6.70396L32.8208 7.93778C33.0505 8.61637 33.1761 9.30233 33.1003 9.4621ZM22.1534 7.35544C22.9562 7.47473 23.6129 7.63024 23.6129 7.70054C23.6129 7.82003 14.9079 26.5025 13.9426 28.4548L13.5048 29.34L11.7364 29.0811C10.7636 28.9386 9.90445 28.8016 9.82723 28.7769C9.74981 28.7519 11.8243 24.1563 14.4368 18.5642C17.0493 12.9722 19.3072 8.11363 19.4545 7.76755C19.7619 7.04499 19.9128 7.02195 22.1534 7.35544ZM45.8189 8.34602C45.9668 8.37759 44.1875 12.4071 41.1358 18.9516C38.429 24.7566 36.1324 29.642 36.0321 29.8077C35.8699 30.076 35.628 30.0814 33.8443 29.8573C32.7412 29.7188 31.7315 29.5831 31.6005 29.5558C31.453 29.5252 33.2404 25.478 36.2835 18.9516C38.9903 13.1465 41.2885 8.25868 41.3907 8.08961C41.5575 7.81403 41.7825 7.8088 43.5788 8.03868C44.6797 8.17967 45.6879 8.31794 45.8189 8.34602ZM36.863 10.454C37.6659 10.5733 38.3226 10.7288 38.3226 10.7991C38.3226 10.9186 29.6175 29.6011 28.6523 31.5534L28.2145 32.4386L26.4461 32.1797C25.4733 32.0372 24.6141 31.9003 24.5369 31.8755C24.4595 31.8505 26.5339 27.2549 29.1465 21.6629C31.759 16.0708 34.0169 11.2122 34.1642 10.8662C34.4715 10.1436 34.6225 10.1206 36.863 10.454Z" fill="#606774"/>
</svg>
