<svg width="34" height="34" viewBox="0 0 34 34" fill="none" xmlns="http://www.w3.org/2000/svg">
<path fill-rule="evenodd" clip-rule="evenodd" d="M8.39677 8.39759L0 16.7952V25.2331C0 31.6131 0.0401689 33.7111 0.164516 33.8355C0.286258 33.9572 1.59457 34 5.20159 34H10.074L12.7145 31.3623L15.3548 28.7244V30.3752C15.3548 31.4762 15.4097 32.0806 15.5194 32.1903C15.6415 32.3125 17.0108 32.3548 20.8327 32.3548H25.9816L29.9907 28.3439L34 24.3329V22.7504C34 21.7023 33.9445 21.1122 33.8355 21.0032C33.7185 20.8863 32.8776 20.8387 30.9234 20.8387H28.1757L31.0879 17.9242L34 15.0098V13.4274C34 12.3796 33.9445 11.7896 33.8355 11.6806C33.7133 11.5585 32.3439 11.5161 28.5216 11.5161H23.3721L20.9073 13.9839C18.7195 16.1743 18.3921 16.4516 17.9953 16.4516H17.5484V15.1826V13.9138L22.2097 9.25403L26.871 4.59425V2.46171C26.871 0.985726 26.8202 0.278307 26.7065 0.164516C26.5847 0.0427743 25.276 0 21.6677 0H16.7935L8.39677 8.39759ZM17.3427 8.77419L9.66628 16.4516H5.75902H1.85177L9.52823 8.77419L17.2047 1.09677H21.1119H25.0192L17.3427 8.77419ZM18.1371 11.8194L10.4879 19.4701L10.4476 18.3444L10.4074 17.2185L18.0565 9.56771L25.7056 1.91702L25.746 3.04273L25.7861 4.16856L18.1371 11.8194ZM28.8589 15.9032L25.5707 19.1935H21.3893H17.2078L20.496 15.9032L23.7841 12.6129H27.9655H32.147L28.8589 15.9032ZM29.6562 17.8493L26.3911 21.118L26.3478 20.5429L26.3045 19.9679L29.5696 16.6991L32.8347 13.4304L32.878 14.0055L32.9213 14.5805L29.6562 17.8493ZM16.6117 17.3706C16.6929 17.4683 16.8891 17.5484 17.0476 17.5484C17.2763 17.5484 17.1308 17.7549 16.3454 18.5456C15.4488 19.4481 15.3548 19.5946 15.3548 20.0887C15.3548 20.6225 15.2572 20.7322 10.9677 25.0202L6.58065 29.4056V30.0576V30.7097H4.93548H3.29032V25.2258V19.7419H4.93548H6.58065V20.4C6.58065 20.7619 6.65468 21.1321 6.74516 21.2226C6.85415 21.3316 7.44463 21.3871 8.49424 21.3871H10.0788L13.2309 18.232L16.3831 15.0768L16.4236 16.1348C16.4459 16.7166 16.5306 17.2727 16.6117 17.3706ZM9.32258 18.9194V20.2903H8.5H7.67742V19.6323C7.67742 19.2703 7.60339 18.9002 7.5129 18.8097C7.28148 18.5783 2.58948 18.5783 2.35806 18.8097C2.1213 19.0464 2.1213 31.4052 2.35806 31.6419C2.58948 31.8734 7.28148 31.8734 7.5129 31.6419C7.60339 31.5515 7.67742 31.1813 7.67742 30.8194V30.1613H8.5H9.32258V31.5323V32.9032H5.20968H1.09677V25.2258V17.5484H5.20968H9.32258V18.9194ZM25.2258 21.1129V21.9355H21.8258C19.3641 21.9355 18.3804 21.9809 18.2613 22.1C18.0271 22.3342 18.0271 29.2142 18.2613 29.4484C18.3804 29.5675 19.3641 29.6129 21.8258 29.6129H25.2258V30.4355V31.2581H20.8387H16.4516V25.7742V20.2903H20.8387H25.2258V21.1129ZM28.8589 25.2258L25.5707 28.5161H22.3821H19.1935V25.7742V23.0323H22.5931H25.9927L26.5282 22.4839L27.0637 21.9355H29.6054H32.147L28.8589 25.2258ZM12.5204 26.2095L9.66779 29.0645H9.05058H8.43351L11.86 25.6346L15.2863 22.2046L15.3296 22.7796L15.3729 23.3544L12.5204 26.2095ZM29.6562 27.1719L26.3911 30.4406L26.3478 29.8654L26.3045 29.2905L29.5696 26.0217L32.8347 22.753L32.878 23.3281L32.9213 23.9031L29.6562 27.1719ZM12.8931 29.6745L10.4194 32.1482V30.9848V29.8213L12.8528 27.3844L15.2863 24.9474L15.3266 26.074L15.3668 27.2008L12.8931 29.6745Z" fill="#606774"/>
</svg>
