<svg width="38" height="34" viewBox="0 0 38 34" fill="none" xmlns="http://www.w3.org/2000/svg">
<path fill-rule="evenodd" clip-rule="evenodd" d="M3.38634 0.209302C2.51224 0.513701 1.94827 1.01522 1.58972 1.80698C1.28998 2.46875 1.20042 2.55196 0.786909 2.55196C-0.208987 2.55196 -0.242852 3.48757 0.749925 3.57469C1.20086 3.61427 1.29741 3.7047 1.59803 4.36872C1.82335 4.86602 2.13661 5.25152 2.52962 5.51499L3.12196 5.91208L2.4154 6.63885L1.70884 7.36546L1.23696 6.90202C0.307156 5.98927 -0.457329 6.66127 0.441725 7.6011L0.923112 8.10427L0.455687 8.6437C-0.0491675 9.22616 -0.111403 9.463 0.166349 9.74438C0.455983 10.0378 0.760322 9.95504 1.28449 9.44028L1.77805 8.95562L4.26163 11.4716L6.74521 13.9876L4.26163 16.5036L1.77805 19.0196L1.28449 18.5349C0.760322 18.0202 0.455983 17.9374 0.166349 18.2308C-0.122839 18.5238 -0.0417415 18.8324 0.462816 19.3597L0.937519 19.8559L0.462816 20.3521C-0.0891227 20.9289 -0.137989 21.2816 0.301067 21.5196C0.56857 21.6647 0.682938 21.6217 1.08798 21.224C1.3485 20.9682 1.62477 20.7587 1.70171 20.7587C1.7785 20.7587 2.92753 21.8574 4.25509 23.2004L6.66856 25.642L3.9968 28.3633C2.52724 29.8598 1.32489 31.16 1.32489 31.2524C1.32489 31.4697 1.74315 31.8934 1.95763 31.8934C2.04882 31.8934 3.33227 30.6754 4.80956 29.1868L7.49558 26.48L9.98183 29.002L12.4682 31.524L11.6495 32.343C10.7698 33.2231 10.6481 33.5894 11.1457 33.8592C11.4255 34.0108 11.5577 33.9327 12.3289 33.1596L13.1972 32.2892L14.0825 33.1446C14.5693 33.6151 15.0347 34 15.1165 34C15.3093 34 15.7323 33.5715 15.7323 33.3762C15.7323 33.2932 15.3515 32.8208 14.886 32.3265L14.0397 31.4276L16.5198 28.915L19 26.4024L21.4802 28.915L23.9603 31.4276L23.114 32.3265C22.6485 32.8208 22.2677 33.2932 22.2677 33.3762C22.2677 33.5715 22.6907 34 22.8835 34C22.9653 34 23.4307 33.6151 23.9175 33.1446L24.8028 32.2892L25.6913 33.1799C26.4326 33.9231 26.6226 34.0435 26.8374 33.9072C27.3296 33.5946 27.2078 33.2003 26.3558 32.3483L25.5318 31.524L28.0182 29.002L30.5044 26.48L33.1904 29.1868C34.6677 30.6754 35.9512 31.8934 36.0424 31.8934C36.1336 31.8934 36.3133 31.787 36.4418 31.657C36.5701 31.5269 36.6751 31.3448 36.6751 31.2524C36.6751 31.16 35.4728 29.8598 34.0032 28.3633L31.3314 25.642L33.7449 23.2004C35.0725 21.8574 36.2215 20.7587 36.2983 20.7587C36.3752 20.7587 36.6515 20.9682 36.912 21.224C37.3171 21.6217 37.4314 21.6647 37.6989 21.5196C38.138 21.2816 38.0891 20.9289 37.5372 20.3521L37.0625 19.8559L37.5372 19.3597C38.0417 18.8324 38.1228 18.5238 37.8337 18.2308C37.544 17.9374 37.2397 18.0202 36.7155 18.5349L36.222 19.0196L33.7384 16.5036L31.2548 13.9876L33.7384 11.4716L36.222 8.95562L36.7155 9.44028C37.2397 9.95504 37.544 10.0378 37.8337 9.74438C38.1114 9.463 38.0492 9.22616 37.5443 8.6437L37.0769 8.10427L37.5583 7.6011C38.4573 6.66127 37.6928 5.98927 36.763 6.90202L36.2912 7.36546L35.5846 6.63885L34.878 5.91208L35.4704 5.51499C35.8634 5.25152 36.1767 4.86602 36.402 4.36872C36.7026 3.7047 36.7991 3.61427 37.2501 3.57469C38.2421 3.48757 38.2093 2.55451 37.214 2.5497C36.8015 2.54774 36.7076 2.45972 36.3781 1.76591C36.0988 1.17817 35.8255 0.870614 35.2763 0.526642C34.5529 0.0737298 34.5222 0.0687642 32.1446 0.0191093C30.6708 -0.0117368 29.5038 0.0343067 29.1228 0.138281C28.325 0.355859 27.4921 1.10023 27.1374 1.91246L26.8582 2.55196H25.3868H23.9155L23.6362 1.91246C23.2921 1.12446 22.4606 0.363383 21.7147 0.153478C20.9873 -0.0511595 17.0127 -0.0511595 16.2853 0.153478C15.5394 0.363383 14.7079 1.12446 14.3638 1.91246L14.0845 2.55196H12.6132H11.1419L10.8626 1.91246C10.5115 1.10851 9.6769 0.356461 8.90083 0.144751C8.57257 0.0550713 7.75997 0.00150435 7.09514 0.0255794C6.13623 0.0601873 5.85254 0.123685 5.72302 0.332537C5.60419 0.523933 5.60405 0.667782 5.72272 0.859178C5.85447 1.07164 6.1701 1.13709 7.35581 1.19773C8.16427 1.23911 8.97539 1.35964 9.15838 1.46557C9.88425 1.88568 10.1623 3.18408 9.71433 4.06161C9.31255 4.84872 8.87825 4.95946 6.19668 4.95886C3.43506 4.95826 2.98353 4.81456 2.56645 3.80326C2.15978 2.81753 2.72493 1.51583 3.6629 1.27733C4.19895 1.14101 4.44402 0.923128 4.44402 0.582767C4.44402 0.15077 4.00215 -0.00526667 3.38634 0.209302ZM21.8074 1.41576C23.0781 2.08144 23.0781 4.07576 21.8074 4.74143C21.4946 4.90529 20.7975 4.95946 19 4.95946C17.2025 4.95946 16.5054 4.90529 16.1926 4.74143C14.938 4.08418 14.9197 2.10702 16.162 1.42299C16.7229 1.11422 21.2208 1.10851 21.8074 1.41576ZM34.7594 1.54125C35.476 2.02892 35.767 2.91083 35.4711 3.69838C35.3459 4.03152 35.0414 4.42244 34.7542 4.6185C34.2856 4.9384 34.1041 4.95946 31.8185 4.95946C29.9315 4.95946 29.2841 4.908 28.9466 4.7312C27.7882 4.12436 27.7692 2.06383 28.9163 1.43322C29.228 1.26198 29.8981 1.20842 31.7888 1.20375C34.1152 1.19804 34.2832 1.21714 34.7594 1.54125ZM14.3263 4.16739C14.4539 4.47661 14.7026 4.88528 14.8789 5.07547L15.1996 5.42125L14.2383 6.39494L13.2771 7.36877L11.975 6.04344L10.6728 4.71826L10.9024 4.16167L11.1319 3.60524H12.6132H14.0945L14.3263 4.16739ZM27.0976 4.16167L27.3272 4.71826L26.025 6.04344L24.7229 7.36877L23.7617 6.39494L22.8004 5.42125L23.1211 5.07547C23.2974 4.88528 23.5461 4.47661 23.6737 4.16739L23.9055 3.60524H25.3868H26.8681L27.0976 4.16167ZM9.97916 10.7125L7.49217 13.2353L5.00369 10.7176L2.51521 8.19996L3.49997 7.19468L4.48457 6.1894L6.72946 6.13718C8.48256 6.09641 9.07179 6.02975 9.41979 5.83263L9.86538 5.5803L11.1658 6.88501L12.4661 8.18973L9.97916 10.7125ZM31.2538 6.13402L33.4817 6.18503L34.4855 7.18701L35.4893 8.18883L33.0018 10.712L30.5144 13.2353L28.0255 10.7173L25.5367 8.19921L26.8235 6.88953L28.1103 5.57985L28.568 5.83143C28.9233 6.02674 29.5246 6.09445 31.2538 6.13402ZM22.9921 7.12562L23.9738 8.12022L21.487 10.6395L19 13.159L16.5143 10.6409L14.0288 8.12277L15.0253 7.10545L16.022 6.08798L19.0162 6.1095L22.0104 6.13101L22.9921 7.12562ZM15.7329 11.5055L18.1809 13.9888L15.694 16.508L13.2073 19.0273L10.7206 16.508L8.23378 13.9888L10.6817 11.5055C12.0281 10.1397 13.1645 9.02213 13.2073 9.02213C13.2501 9.02213 14.3865 10.1397 15.7329 11.5055ZM27.3183 11.5055L29.7662 13.9888L27.2794 16.508L24.7927 19.0273L22.306 16.508L19.8191 13.9888L22.2671 11.5055C23.6135 10.1397 24.7499 9.02213 24.7927 9.02213C24.8355 9.02213 25.9719 10.1397 27.3183 11.5055ZM10.0494 17.3339L12.4648 19.7774L9.97841 22.2994L7.49217 24.8214L5.00265 22.3027L2.51313 19.784L4.92511 17.3372C6.25164 15.9914 7.40379 14.8904 7.48563 14.8904C7.56732 14.8904 8.7211 15.9901 10.0494 17.3339ZM21.5256 17.3738L23.9735 19.8571L21.4867 22.3763L19 24.8956L16.5133 22.3763L14.0265 19.8571L16.4744 17.3738C17.8208 16.008 18.9572 14.8904 19 14.8904C19.0428 14.8904 20.1792 16.008 21.5256 17.3738ZM33.0716 17.3339L35.487 19.7774L33.0054 22.2946L30.5239 24.8118L29.4564 23.7633C28.3779 22.7038 28.1166 22.5675 27.793 22.8954C27.4564 23.2363 27.6167 23.5525 28.6557 24.5969L29.6966 25.6432L27.2091 28.1665L24.7217 30.6897L22.3064 28.2462C20.978 26.9024 19.8912 25.7337 19.8912 25.649C19.8912 25.5642 20.9789 24.3948 22.3082 23.0499L24.7251 20.6048L25.5337 21.434C26.3643 22.2863 26.7028 22.4258 27.0147 22.0449C27.2809 21.7201 27.1035 21.3567 26.2761 20.5311L25.5313 19.788L27.9452 17.3392C29.273 15.9923 30.426 14.8904 30.5078 14.8904C30.5895 14.8904 31.7433 15.9901 33.0716 17.3339ZM18.1088 25.6457C18.1088 25.7284 17.0234 26.8973 15.6968 28.2429L13.2849 30.6898L10.7953 28.171L8.30581 25.6523L10.7921 23.1303L13.2783 20.6082L15.6936 23.0517C17.022 24.3956 18.1088 25.5627 18.1088 25.6457Z" fill="#606774"/>
</svg>
