<svg width="16" height="8" viewBox="0 0 16 8" fill="none" xmlns="http://www.w3.org/2000/svg">
<path d="M14.9271 4.75639C14.9269 4.75656 14.9268 4.75676 14.9266 4.75693L11.9362 7.73284C11.7122 7.95577 11.3499 7.95494 11.1269 7.73089C10.9039 7.50687 10.9048 7.14452 11.1288 6.92156L13.1365 4.92358L1.01663 4.92358C0.70055 4.92358 0.444336 4.66737 0.444336 4.35129C0.444336 4.03522 0.70055 3.779 1.01663 3.779L13.1365 3.779L11.1288 1.78103C10.9048 1.55806 10.904 1.19572 11.1269 0.971697C11.3499 0.747617 11.7123 0.746845 11.9363 0.969751L14.9266 3.94566C14.9268 3.94583 14.9269 3.94603 14.9271 3.9462C15.1513 4.16991 15.1505 4.53342 14.9271 4.75639Z" fill="#212121"/>
</svg>
