<svg width="16" height="16" viewBox="0 0 16 16" fill="none" xmlns="http://www.w3.org/2000/svg">
<path d="M15.9958 8.85166L15.9989 2.8573C15.9995 1.261 14.684 -0.0804021 13.0636 0.00375697C12.1232 0.0521939 11.007 0.141802 9.79244 0.301947C8.72952 0.442414 7.81428 0.607099 7.05501 0.768454C5.55431 1.08753 4.37695 2.79251 4.37665 4.38881C4.37665 5.50044 4.37665 6.76888 4.37665 7.8802C4.37665 9.4768 4.0487 10.6608 3.62722 10.6199C3.37987 10.596 3.1233 10.5954 2.8618 10.6202C1.15652 10.7831 -0.120208 11.9777 0.00900342 13.2873C0.138522 14.5981 1.62476 15.529 3.32942 15.3661C5.03562 15.2033 6.31235 14.0093 6.18314 12.6979C6.18222 12.6891 6.18222 12.6767 6.18314 12.6655C6.18437 12.6473 6.18652 11.3383 6.18652 9.74199V7.47908C6.18652 5.88248 7.07993 4.72847 8.18837 4.69093C8.75167 4.67216 9.42234 4.61646 10.1859 4.49537C10.964 4.37216 11.6457 4.22261 12.2155 4.07548C13.3242 3.79001 14.1853 4.73301 14.1853 6.32931V6.99017C14.1853 8.58647 13.857 9.77045 13.4356 9.72988C13.1885 9.70536 12.932 9.70445 12.6702 9.72928C10.9652 9.89215 9.68815 11.087 9.81705 12.3975C9.94687 13.709 11.4337 14.6387 13.1381 14.4761C14.8434 14.3123 16.121 13.1186 15.9909 11.8081C15.9903 11.7993 15.9906 11.7866 15.9912 11.7751C15.9924 11.757 15.9952 10.4486 15.9958 8.85166Z" fill="#FFA1EE"/>
</svg>
