<svg width="48" height="46" viewBox="0 0 48 46" fill="none" xmlns="http://www.w3.org/2000/svg">
<path d="M33.7778 23C33.7778 28.2773 29.4 32.5556 24 32.5556C18.5999 32.5556 14.2222 28.2773 14.2222 23C14.2222 17.7226 18.5999 13.4444 24 13.4444C29.4 13.4444 33.7778 17.7226 33.7778 23ZM33.7778 23V26.5833C33.7778 29.8817 36.5138 32.5556 39.8889 32.5556C43.2639 32.5556 46 29.8817 46 26.5833V23C46 11.1259 36.1504 1.5 24 1.5C11.8497 1.5 2 11.1259 2 23C2 34.8742 11.8497 44.5 24 44.5H33.7778" stroke="white" stroke-width="3" stroke-linecap="round" stroke-linejoin="round"/>
</svg>
