<svg width="31" height="32" viewBox="0 0 31 32" fill="none" xmlns="http://www.w3.org/2000/svg">
<path fill-rule="evenodd" clip-rule="evenodd" d="M15.5 0.5C24.0606 0.5 31 7.61438 31 16.392C31 23.412 26.5639 29.3671 20.4088 31.4704C19.623 31.627 19.344 31.1307 19.344 30.7076C19.344 30.1837 19.3626 28.4725 19.3626 26.3459C19.3626 24.8641 18.8666 23.897 18.3102 23.4041C21.762 23.0104 25.389 21.6664 25.389 15.5625C25.389 13.8265 24.7876 12.4099 23.7925 11.297C23.9537 10.8956 24.4853 9.27912 23.6406 7.09052C23.6406 7.09052 22.3417 6.66469 19.3827 8.71999C18.1443 8.36814 16.8175 8.1911 15.5 8.1849C14.1825 8.1911 12.8573 8.36814 11.6204 8.71999C8.6583 6.66469 7.3563 7.09052 7.3563 7.09052C6.51465 9.27912 7.0463 10.8956 7.20595 11.297C6.2155 12.4099 5.60946 13.8265 5.60946 15.5625C5.60946 21.6509 9.2287 23.0155 12.6713 23.417C12.228 23.8138 11.8265 24.5138 11.687 25.5414C10.8035 25.9475 8.5591 26.6503 7.1765 24.2215C7.1765 24.2215 6.35655 22.6945 4.80035 22.5829C4.80035 22.5829 3.2891 22.5629 4.69495 23.5487C4.69495 23.5487 5.7102 24.0369 6.41545 25.8737C6.41545 25.8737 7.3253 28.7101 11.6374 27.7491C11.6452 29.0774 11.6591 30.3294 11.6591 30.7076C11.6591 31.1276 11.3739 31.6192 10.6004 31.472C4.44074 29.3717 0 23.4135 0 16.392C0 7.61438 6.9409 0.5 15.5 0.5Z" fill="black"/>
</svg>
