<svg width="46" height="52" viewBox="0 0 46 52" fill="none" xmlns="http://www.w3.org/2000/svg">
<path d="M31.9731 50.0522C31.9828 48.5346 31.9922 43.2676 31.9922 41.1822C31.9922 38.1685 30.9629 36.1966 29.8084 35.1984C36.9756 34.3975 44.5 31.6676 44.5 19.2502C44.5 15.722 43.2571 12.8358 41.1928 10.5775C41.5234 9.75969 42.6272 6.47235 40.872 2.02271C40.872 2.02271 38.1756 1.15423 32.0306 5.3393C29.459 4.62001 26.7096 4.26411 23.9751 4.24981C21.2403 4.26411 18.4912 4.62034 15.9192 5.3393C9.77426 1.15423 7.07814 2.02271 7.07814 2.02271C5.32299 6.47235 6.42679 9.75969 6.75734 10.5775C4.69308 12.8358 3.45017 15.722 3.45017 19.2502C3.45017 31.6676 10.9743 34.3975 18.1415 35.1984C16.9873 36.1966 15.9576 38.1685 15.9576 41.1822C15.9576 43.2676 15.9674 48.5346 15.9768 50.0522M1.5 37.0511C4.73046 37.2796 6.5932 40.2152 6.5932 40.2152C9.4645 45.1553 14.1267 43.7265 15.9589 42.9016" stroke="white" stroke-width="3" stroke-linecap="round" stroke-linejoin="round"/>
</svg>
