<svg width="44" height="56" viewBox="0 0 44 56" fill="none" xmlns="http://www.w3.org/2000/svg">
<path d="M8.47729 51.1816H35.5227C36.8106 51.1816 37.4546 51.8256 37.4546 53.1135C37.4546 54.4013 36.8106 55.0453 35.5227 55.0453H8.47729C7.18941 55.0453 6.54547 54.4013 6.54547 53.1135C6.54547 51.8256 7.18941 51.1816 8.47729 51.1816Z" fill="white"/>
<path d="M39.3864 22.2046C39.3864 17.5934 37.5546 13.1711 34.294 9.91057C31.0334 6.65 26.6111 4.81823 22 4.81823C17.3888 4.81823 12.9666 6.65 9.70598 9.91057C6.44541 13.1711 4.61364 17.5934 4.61364 22.2046C4.61364 29.3369 10.3202 38.6328 22 49.7678C33.6798 38.6328 39.3864 29.3369 39.3864 22.2046ZM22 55.0455C7.83205 42.168 0.75 31.2185 0.75 22.2046C0.75 16.5687 2.98883 11.1637 6.97398 7.17857C10.9591 3.19342 16.3641 0.95459 22 0.95459C27.6358 0.95459 33.0409 3.19342 37.026 7.17857C41.0112 11.1637 43.25 16.5687 43.25 22.2046C43.25 31.2185 36.168 42.168 22 55.0455Z" fill="white"/>
<path d="M22 28C23.5371 28 25.0112 27.3894 26.098 26.3025C27.1849 25.2156 27.7955 23.7416 27.7955 22.2045C27.7955 20.6675 27.1849 19.1934 26.098 18.1065C25.0112 17.0196 23.5371 16.409 22 16.409C20.463 16.409 18.9889 17.0196 17.902 18.1065C16.8151 19.1934 16.2045 20.6675 16.2045 22.2045C16.2045 23.7416 16.8151 25.2156 17.902 26.3025C18.9889 27.3894 20.463 28 22 28ZM22 31.8636C19.4383 31.8636 16.9814 30.8459 15.17 29.0345C13.3586 27.2231 12.3409 24.7663 12.3409 22.2045C12.3409 19.6428 13.3586 17.1859 15.17 15.3745C16.9814 13.5631 19.4383 12.5454 22 12.5454C24.5618 12.5454 27.0186 13.5631 28.83 15.3745C30.6414 17.1859 31.6591 19.6428 31.6591 22.2045C31.6591 24.7663 30.6414 27.2231 28.83 29.0345C27.0186 30.8459 24.5618 31.8636 22 31.8636Z" fill="white"/>
</svg>
