<svg width="50" height="44" viewBox="0 0 50 44" fill="none" xmlns="http://www.w3.org/2000/svg">
<path d="M48.5196 0.680893C48.1312 0.346872 47.6584 0.12506 47.1523 0.0395102C46.6463 -0.0460392 46.1264 0.00793957 45.6491 0.195593L2.28837 17.1514C1.72154 17.373 1.24206 17.7714 0.921668 18.2869C0.60128 18.8024 0.457215 19.4073 0.511032 20.0112C0.564848 20.615 0.813652 21.1852 1.22021 21.6365C1.62677 22.0878 2.16923 22.396 2.7664 22.5148L14.5358 24.8579V39.318C14.5299 39.8744 14.6929 40.4195 15.0034 40.8821C15.3139 41.3446 15.7576 41.7031 16.2762 41.9106C16.6236 42.0554 16.9963 42.1304 17.373 42.1314C17.7411 42.1303 18.1052 42.0564 18.4444 41.914C18.7835 41.7717 19.0909 41.5637 19.3487 41.3022L26.0672 34.6148L35.9803 43.298C36.4911 43.7495 37.1504 43.9993 37.8336 44C38.1306 43.9997 38.4257 43.953 38.7082 43.8618C39.1741 43.7148 39.5932 43.4486 39.9235 43.09C40.2539 42.7314 40.484 42.2929 40.5909 41.8181L49.428 3.43442C49.5434 2.93663 49.5197 2.41691 49.3596 1.93154C49.1995 1.44618 48.909 1.01368 48.5196 0.680893ZM2.38324 19.8458C2.35986 19.6437 2.40564 19.4397 2.51316 19.2667C2.62068 19.0937 2.78367 18.9619 2.97577 18.8925L42.7226 3.34987L15.2576 23.0938L3.13499 20.6805C2.93362 20.6458 2.74988 20.5446 2.61347 20.3931C2.47705 20.2416 2.39594 20.0488 2.38324 19.8458ZM18.0196 39.9794C17.8881 40.1102 17.7207 40.1993 17.5384 40.2354C17.3561 40.2715 17.1672 40.253 16.9954 40.1822C16.8237 40.1114 16.677 39.9915 16.5737 39.8377C16.4704 39.6839 16.4153 39.5031 16.4153 39.3181V26.1603L24.6534 33.3764L18.0196 39.9794ZM47.5959 3.0165L38.7588 41.4002C38.7224 41.5581 38.6454 41.7039 38.5354 41.8233C38.4254 41.9428 38.2861 42.0317 38.1312 42.0814C37.9762 42.1312 37.811 42.14 37.6516 42.107C37.4922 42.0741 37.3441 42.0005 37.2219 41.8934L16.9804 24.1632L47.4441 2.26366C47.5242 2.36991 47.5794 2.49268 47.6057 2.62294C47.632 2.75321 47.6287 2.88768 47.5959 3.0165Z" fill="white"/>
</svg>
